<svg width="40" height="40" viewBox="0 0 40 40" fill="none" xmlns="http://www.w3.org/2000/svg">
<path d="M19.9999 3.33325C10.8099 3.33325 3.33325 10.8099 3.33325 19.9999C3.33325 29.1899 10.8099 36.6666 19.9999 36.6666C29.1899 36.6666 36.6666 29.1899 36.6666 19.9999C36.6666 10.8099 29.1899 3.33325 19.9999 3.33325ZM26.9766 21.2333L19.9999 28.2099L13.0233 21.2333C12.5922 20.8077 12.2499 20.3007 12.0162 19.7418C11.7826 19.1829 11.6623 18.5832 11.6623 17.9774C11.6623 17.3716 11.7826 16.7719 12.0162 16.213C12.2499 15.6541 12.5922 15.1472 13.0233 14.7216C13.4488 14.2907 13.9556 13.9487 14.5144 13.7152C15.0731 13.4817 15.6727 13.3615 16.2783 13.3615C16.8838 13.3615 17.4834 13.4817 18.0421 13.7152C18.6009 13.9487 19.1077 14.2907 19.5333 14.7216L19.9999 15.1866L20.4649 14.7216C20.8905 14.2907 21.3973 13.9487 21.9561 13.7152C22.5148 13.4817 23.1143 13.3615 23.7199 13.3615C24.3255 13.3615 24.925 13.4817 25.4838 13.7152C26.0425 13.9487 26.5494 14.2907 26.9749 14.7216C27.4061 15.147 27.7485 15.6539 27.9823 16.2127C28.2161 16.7716 28.3365 17.3713 28.3367 17.9771C28.3368 18.5828 28.2167 19.1826 27.9832 19.7416C27.7497 20.3005 27.4076 20.8076 26.9766 21.2333Z" fill="white"/>
</svg>
