<svg width="21" height="22" viewBox="0 0 21 22" fill="none" xmlns="http://www.w3.org/2000/svg">
<path d="M10.4167 0.959961C4.67292 0.959961 0 5.63288 0 11.3766C0 17.1204 4.67292 21.7933 10.4167 21.7933C16.1604 21.7933 20.8333 17.1204 20.8333 11.3766C20.8333 5.63288 16.1604 0.959961 10.4167 0.959961ZM14.7771 12.1475L10.4167 16.5079L6.05625 12.1475C5.78681 11.8815 5.57288 11.5646 5.42686 11.2153C5.28085 10.866 5.20566 10.4912 5.20566 10.1126C5.20566 9.73396 5.28085 9.35912 5.42686 9.00981C5.57288 8.66049 5.78681 8.34365 6.05625 8.07767C6.32221 7.80839 6.63899 7.59459 6.98821 7.44867C7.33743 7.30275 7.71214 7.22761 8.09062 7.22761C8.46911 7.22761 8.84382 7.30275 9.19304 7.44867C9.54226 7.59459 9.85904 7.80839 10.125 8.07767L10.4167 8.36829L10.7073 8.07767C10.9733 7.80839 11.29 7.59459 11.6392 7.44867C11.9885 7.30275 12.3632 7.22761 12.7417 7.22761C13.1201 7.22761 13.4949 7.30275 13.8441 7.44867C14.1933 7.59459 14.5101 7.80839 14.776 8.07767C15.0455 8.34358 15.2596 8.66037 15.4057 9.00965C15.5518 9.35892 15.6271 9.73374 15.6272 10.1123C15.6272 10.491 15.5522 10.8658 15.4062 11.2152C15.2603 11.5645 15.0465 11.8814 14.7771 12.1475Z" fill="#134870"/>
</svg>
