<svg width="101" height="42" viewBox="0 0 101 42" fill="none" xmlns="http://www.w3.org/2000/svg">
<rect x="0.5" y="0.5" width="100" height="41" rx="19.5" stroke="white"/>
<path d="M45.4459 29.6468C45.143 27.5132 44.5408 25.741 43.6392 24.3301C42.7376 22.9192 41.4678 22.1036 39.8298 21.8834C38.9076 22.902 37.8098 23.6969 36.5366 24.2681C35.2633 24.8394 33.9178 25.125 32.5 25.125C31.0822 25.125 29.7367 24.8394 28.4634 24.2681C27.1902 23.6969 26.0924 22.902 25.1702 21.8834C23.5322 22.1036 22.2624 22.9192 21.3608 24.3301C20.4592 25.741 19.857 27.5132 19.5541 29.6468C21.0132 31.7115 22.8783 33.3461 25.1496 34.5505C27.4208 35.7549 29.8709 36.3571 32.5 36.3571C35.1291 36.3571 37.5792 35.7549 39.8504 34.5505C42.1217 33.3461 43.9868 31.7115 45.4459 29.6468ZM40.4286 15.2143C40.4286 13.0257 39.6543 11.1571 38.1057 9.60854C36.5572 8.05999 34.6886 7.28571 32.5 7.28571C30.3114 7.28571 28.4428 8.05999 26.8943 9.60854C25.3457 11.1571 24.5714 13.0257 24.5714 15.2143C24.5714 17.4029 25.3457 19.2715 26.8943 20.82C28.4428 22.3686 30.3114 23.1429 32.5 23.1429C34.6886 23.1429 36.5572 22.3686 38.1057 20.82C39.6543 19.2715 40.4286 17.4029 40.4286 15.2143ZM51 20.5C51 23.0052 50.5113 25.3969 49.534 27.6749C48.5567 29.953 47.2456 31.9214 45.6007 33.5801C43.9558 35.2387 41.9909 36.5567 39.7059 37.534C37.4209 38.5113 35.019 39 32.5 39C29.9948 39 27.5997 38.5113 25.3147 37.534C23.0298 36.5567 21.0614 35.2422 19.4096 33.5904C17.7578 31.9386 16.4433 29.9702 15.466 27.6853C14.4887 25.4003 14 23.0052 14 20.5C14 17.9948 14.4887 15.5997 15.466 13.3147C16.4433 11.0298 17.7578 9.06138 19.4096 7.4096C21.0614 5.75781 23.0298 4.44327 25.3147 3.46596C27.5997 2.48865 29.9948 2 32.5 2C35.0052 2 37.4003 2.48865 39.6853 3.46596C41.9702 4.44327 43.9386 5.75781 45.5904 7.4096C47.2422 9.06138 48.5567 11.0298 49.534 13.3147C50.5113 15.5997 51 17.9948 51 20.5Z" fill="white"/>
<path d="M64 18L70 24L76 18" stroke="white" stroke-width="2" stroke-linecap="round" stroke-linejoin="round"/>
</svg>
