<svg width="335" height="32" viewBox="0 0 335 32" fill="none" xmlns="http://www.w3.org/2000/svg">
<rect width="165" height="32" rx="16" fill="#134870"/>
<path d="M62.469 12.326C62.385 12.446 62.301 12.536 62.217 12.596C62.139 12.65 62.04 12.677 61.92 12.677C61.8 12.677 61.677 12.629 61.551 12.533C61.425 12.437 61.275 12.332 61.101 12.218C60.927 12.098 60.72 11.99 60.48 11.894C60.24 11.798 59.952 11.75 59.616 11.75C59.292 11.75 59.004 11.798 58.752 11.894C58.5 11.99 58.287 12.122 58.113 12.29C57.945 12.458 57.816 12.656 57.726 12.884C57.642 13.112 57.6 13.358 57.6 13.622C57.6 13.898 57.669 14.129 57.807 14.315C57.951 14.495 58.137 14.654 58.365 14.792C58.593 14.93 58.854 15.053 59.148 15.161C59.442 15.269 59.739 15.383 60.039 15.503C60.345 15.623 60.645 15.761 60.939 15.917C61.233 16.073 61.494 16.265 61.722 16.493C61.95 16.721 62.133 16.997 62.271 17.321C62.415 17.639 62.487 18.026 62.487 18.482C62.487 19.118 62.376 19.718 62.154 20.282C61.932 20.846 61.617 21.341 61.209 21.767C60.801 22.187 60.303 22.523 59.715 22.775C59.127 23.021 58.47 23.144 57.744 23.144C57.366 23.144 56.994 23.102 56.628 23.018C56.262 22.94 55.917 22.826 55.593 22.676C55.269 22.526 54.969 22.346 54.693 22.136C54.417 21.926 54.177 21.692 53.973 21.434L54.801 20.318C54.867 20.234 54.951 20.165 55.053 20.111C55.155 20.057 55.257 20.03 55.359 20.03C55.455 20.03 55.548 20.06 55.638 20.12C55.734 20.18 55.836 20.255 55.944 20.345C56.058 20.429 56.178 20.525 56.304 20.633C56.436 20.735 56.583 20.831 56.745 20.921C56.913 21.005 57.102 21.077 57.312 21.137C57.528 21.197 57.771 21.227 58.041 21.227C58.725 21.227 59.259 21.035 59.643 20.651C60.027 20.267 60.219 19.736 60.219 19.058C60.219 18.758 60.15 18.512 60.012 18.32C59.874 18.128 59.691 17.966 59.463 17.834C59.235 17.702 58.974 17.588 58.68 17.492C58.392 17.39 58.098 17.285 57.798 17.177C57.498 17.063 57.201 16.934 56.907 16.79C56.619 16.64 56.361 16.451 56.133 16.223C55.905 15.989 55.722 15.704 55.584 15.368C55.446 15.032 55.377 14.618 55.377 14.126C55.377 13.568 55.479 13.031 55.683 12.515C55.893 11.999 56.19 11.546 56.574 11.156C56.964 10.76 57.432 10.445 57.978 10.211C58.53 9.971 59.151 9.851 59.841 9.851C60.195 9.851 60.534 9.887 60.858 9.959C61.188 10.031 61.494 10.133 61.776 10.265C62.058 10.397 62.316 10.556 62.55 10.742C62.79 10.922 62.997 11.123 63.171 11.345L62.469 12.326ZM67.4041 21.425C67.7761 21.425 68.1121 21.32 68.4121 21.11C68.7121 20.894 68.9671 20.609 69.1771 20.255C69.3871 19.895 69.5491 19.478 69.6631 19.004C69.7771 18.53 69.8341 18.032 69.8341 17.51C69.8341 16.76 69.7081 16.211 69.4561 15.863C69.2041 15.509 68.8201 15.332 68.3041 15.332C67.9321 15.332 67.5931 15.437 67.2871 15.647C66.9871 15.857 66.7321 16.142 66.5221 16.502C66.3121 16.856 66.1501 17.27 66.0361 17.744C65.9221 18.218 65.8651 18.719 65.8651 19.247C65.8651 19.997 65.9911 20.549 66.2431 20.903C66.4951 21.251 66.8821 21.425 67.4041 21.425ZM67.1971 23.135C66.6871 23.135 66.2161 23.051 65.7841 22.883C65.3521 22.709 64.9771 22.457 64.6591 22.127C64.3411 21.797 64.0921 21.392 63.9121 20.912C63.7321 20.432 63.6421 19.883 63.6421 19.265C63.6421 18.467 63.7711 17.723 64.0291 17.033C64.2871 16.343 64.6351 15.746 65.0731 15.242C65.5171 14.738 66.0331 14.342 66.6211 14.054C67.2091 13.766 67.8361 13.622 68.5021 13.622C69.0121 13.622 69.4831 13.709 69.9151 13.883C70.3531 14.051 70.7281 14.3 71.0401 14.63C71.3581 14.96 71.6071 15.365 71.7871 15.845C71.9671 16.325 72.0571 16.874 72.0571 17.492C72.0571 18.284 71.9281 19.025 71.6701 19.715C71.4121 20.399 71.0611 20.996 70.6171 21.506C70.1791 22.01 69.6661 22.409 69.0781 22.703C68.4901 22.991 67.8631 23.135 67.1971 23.135ZM75.953 15.98C76.187 15.524 76.436 15.134 76.7 14.81C76.97 14.48 77.249 14.225 77.537 14.045C77.825 13.859 78.122 13.751 78.428 13.721C78.734 13.685 79.04 13.733 79.346 13.865L78.941 15.989C78.209 15.683 77.567 15.758 77.015 16.214C76.469 16.67 76.031 17.567 75.701 18.905L75.206 23H73.028L74.144 13.757H75.278C75.512 13.757 75.692 13.814 75.818 13.928C75.95 14.042 76.016 14.225 76.016 14.477L75.953 15.98ZM80.1743 21.119C80.1743 21.077 80.1743 21.029 80.1743 20.975C80.1743 20.915 80.1773 20.831 80.1833 20.723C80.1953 20.609 80.2103 20.462 80.2283 20.282C80.2523 20.096 80.2823 19.859 80.3183 19.571L80.8313 15.431H79.9583C79.8503 15.431 79.7603 15.392 79.6883 15.314C79.6223 15.236 79.6013 15.119 79.6252 14.963L79.7243 14.081L81.1283 13.838L81.8663 11.318C81.9083 11.198 81.9713 11.105 82.0553 11.039C82.1393 10.973 82.2443 10.94 82.3703 10.94H83.5583L83.1983 13.847H85.4303L85.2413 15.431H83.0003L82.5053 19.454C82.4753 19.7 82.4513 19.895 82.4333 20.039C82.4153 20.183 82.4003 20.297 82.3883 20.381C82.3823 20.459 82.3793 20.516 82.3793 20.552C82.3793 20.582 82.3793 20.603 82.3793 20.615C82.3793 20.843 82.4333 21.023 82.5413 21.155C82.6553 21.287 82.8143 21.353 83.0183 21.353C83.1443 21.353 83.2523 21.338 83.3423 21.308C83.4323 21.272 83.5103 21.236 83.5762 21.2C83.6423 21.164 83.7023 21.131 83.7563 21.101C83.8103 21.065 83.8613 21.047 83.9093 21.047C83.9753 21.047 84.0263 21.065 84.0623 21.101C84.0983 21.131 84.1313 21.179 84.1613 21.245L84.6383 22.325C84.3083 22.595 83.9423 22.799 83.5403 22.937C83.1443 23.075 82.7393 23.144 82.3253 23.144C81.6713 23.144 81.1523 22.967 80.7683 22.613C80.3903 22.259 80.1923 21.761 80.1743 21.119Z" fill="white"/>
<path d="M103.5 24C107.642 24 111 20.6421 111 16.5C111 12.3579 107.642 9 103.5 9C99.3579 9 96 12.3579 96 16.5C96 20.6421 99.3579 24 103.5 24Z" stroke="white" stroke-width="2" stroke-linecap="round" stroke-linejoin="round"/>
<path d="M99.5977 15L103.498 19.2L107.398 15" stroke="white" stroke-width="2" stroke-linecap="round" stroke-linejoin="round"/>
<rect x="170" width="165" height="32" rx="16" fill="#134870"/>
<path d="M224.419 11.849L223.924 15.809H228.352L228.1 17.672H223.699L223.042 23H220.693L222.295 9.986H229.882L229.648 11.849H224.419ZM233.183 13.766L232.076 23H229.889L230.996 13.766H233.183ZM233.75 11.075C233.75 11.267 233.708 11.447 233.624 11.615C233.546 11.783 233.441 11.93 233.309 12.056C233.177 12.182 233.027 12.284 232.859 12.362C232.691 12.434 232.517 12.47 232.337 12.47C232.163 12.47 231.995 12.434 231.833 12.362C231.671 12.284 231.527 12.182 231.401 12.056C231.275 11.93 231.173 11.783 231.095 11.615C231.023 11.447 230.987 11.267 230.987 11.075C230.987 10.883 231.026 10.7 231.104 10.526C231.182 10.352 231.284 10.202 231.41 10.076C231.536 9.944 231.68 9.842 231.842 9.77C232.01 9.692 232.181 9.653 232.355 9.653C232.535 9.653 232.709 9.692 232.877 9.77C233.045 9.842 233.192 9.941 233.318 10.067C233.45 10.193 233.555 10.343 233.633 10.517C233.711 10.691 233.75 10.877 233.75 11.075ZM234.239 23L235.859 9.626H238.055L236.426 23H234.239ZM239.284 21.119C239.284 21.077 239.284 21.029 239.284 20.975C239.284 20.915 239.287 20.831 239.293 20.723C239.305 20.609 239.32 20.462 239.338 20.282C239.362 20.096 239.392 19.859 239.428 19.571L239.941 15.431H239.068C238.96 15.431 238.87 15.392 238.798 15.314C238.732 15.236 238.711 15.119 238.735 14.963L238.834 14.081L240.238 13.838L240.976 11.318C241.018 11.198 241.081 11.105 241.165 11.039C241.249 10.973 241.354 10.94 241.48 10.94H242.668L242.308 13.847H244.54L244.351 15.431H242.11L241.615 19.454C241.585 19.7 241.561 19.895 241.543 20.039C241.525 20.183 241.51 20.297 241.498 20.381C241.492 20.459 241.489 20.516 241.489 20.552C241.489 20.582 241.489 20.603 241.489 20.615C241.489 20.843 241.543 21.023 241.651 21.155C241.765 21.287 241.924 21.353 242.128 21.353C242.254 21.353 242.362 21.338 242.452 21.308C242.542 21.272 242.62 21.236 242.686 21.2C242.752 21.164 242.812 21.131 242.866 21.101C242.92 21.065 242.971 21.047 243.019 21.047C243.085 21.047 243.136 21.065 243.172 21.101C243.208 21.131 243.241 21.179 243.271 21.245L243.748 22.325C243.418 22.595 243.052 22.799 242.65 22.937C242.254 23.075 241.849 23.144 241.435 23.144C240.781 23.144 240.262 22.967 239.878 22.613C239.5 22.259 239.302 21.761 239.284 21.119ZM249.714 15.188C249.414 15.188 249.135 15.251 248.877 15.377C248.619 15.497 248.385 15.668 248.175 15.89C247.971 16.112 247.791 16.379 247.635 16.691C247.485 16.997 247.365 17.333 247.275 17.699C248.019 17.597 248.616 17.486 249.066 17.366C249.522 17.24 249.873 17.108 250.119 16.97C250.365 16.826 250.527 16.673 250.605 16.511C250.689 16.343 250.731 16.169 250.731 15.989C250.731 15.899 250.71 15.806 250.668 15.71C250.632 15.614 250.572 15.53 250.488 15.458C250.41 15.38 250.305 15.317 250.173 15.269C250.047 15.215 249.894 15.188 249.714 15.188ZM247.086 19.238C247.086 20.69 247.701 21.416 248.931 21.416C249.195 21.416 249.429 21.392 249.633 21.344C249.837 21.29 250.014 21.227 250.164 21.155C250.32 21.083 250.458 21.002 250.578 20.912C250.704 20.822 250.818 20.741 250.92 20.669C251.028 20.597 251.133 20.537 251.235 20.489C251.337 20.435 251.448 20.408 251.568 20.408C251.64 20.408 251.709 20.426 251.775 20.462C251.847 20.498 251.91 20.546 251.964 20.606L252.531 21.29C252.213 21.608 251.901 21.884 251.595 22.118C251.289 22.352 250.977 22.544 250.659 22.694C250.341 22.844 250.005 22.955 249.651 23.027C249.297 23.099 248.913 23.135 248.499 23.135C247.959 23.135 247.47 23.045 247.032 22.865C246.594 22.679 246.219 22.421 245.907 22.091C245.595 21.755 245.352 21.353 245.178 20.885C245.01 20.411 244.926 19.883 244.926 19.301C244.926 18.815 244.977 18.338 245.079 17.87C245.187 17.402 245.34 16.958 245.538 16.538C245.736 16.118 245.979 15.731 246.267 15.377C246.555 15.023 246.879 14.717 247.239 14.459C247.605 14.201 248.004 14 248.436 13.856C248.874 13.712 249.342 13.64 249.84 13.64C250.32 13.64 250.74 13.709 251.1 13.847C251.466 13.985 251.769 14.165 252.009 14.387C252.255 14.603 252.438 14.846 252.558 15.116C252.678 15.386 252.738 15.65 252.738 15.908C252.738 16.322 252.654 16.7 252.486 17.042C252.324 17.384 252.03 17.69 251.604 17.96C251.184 18.23 250.608 18.464 249.876 18.662C249.144 18.854 248.214 19.007 247.086 19.121V19.238ZM256.596 15.98C256.83 15.524 257.079 15.134 257.343 14.81C257.613 14.48 257.892 14.225 258.18 14.045C258.468 13.859 258.765 13.751 259.071 13.721C259.377 13.685 259.683 13.733 259.989 13.865L259.584 15.989C258.852 15.683 258.21 15.758 257.658 16.214C257.112 16.67 256.674 17.567 256.344 18.905L255.849 23H253.671L254.787 13.757H255.921C256.155 13.757 256.335 13.814 256.461 13.928C256.593 14.042 256.659 14.225 256.659 14.477L256.596 15.98Z" fill="white"/>
<path d="M277.5 25C281.642 25 285 21.6421 285 17.5C285 13.3579 281.642 10 277.5 10C273.358 10 270 13.3579 270 17.5C270 21.6421 273.358 25 277.5 25Z" stroke="white" stroke-width="2" stroke-linecap="round" stroke-linejoin="round"/>
<path d="M273.602 16L277.502 20.2L281.402 16" stroke="white" stroke-width="2" stroke-linecap="round" stroke-linejoin="round"/>
</svg>
